<svg width="17" height="15" viewBox="0 0 17 15" fill="none" xmlns="http://www.w3.org/2000/svg">
<path d="M16.8288 2.55001L14.7348 0.450014C14.6644 0.379483 14.5689 0.339844 14.4693 0.339844C14.3697 0.339844 14.2741 0.379483 14.2038 0.450014L5.3598 9.30001C5.28944 9.37055 5.19392 9.41018 5.0943 9.41018C4.99467 9.41018 4.89915 9.37055 4.82879 9.30001L2.73479 7.20001C2.66444 7.12948 2.56892 7.08984 2.4693 7.08984C2.36967 7.08984 2.27415 7.12948 2.20379 7.20001L0.109795 9.30001C-0.0365983 9.44645 -0.0365983 9.68383 0.109795 9.83026L4.82879 14.55C4.89915 14.6205 4.99467 14.6602 5.0943 14.6602C5.19392 14.6602 5.28944 14.6205 5.3598 14.55L16.8288 3.07501C16.9717 2.9292 16.9717 2.69583 16.8288 2.55001Z" fill="#0D0E10"/>
</svg>
