<svg width="340" height="20" viewBox="0 0 340 20" fill="none" xmlns="http://www.w3.org/2000/svg">
<path fill-rule="evenodd" clip-rule="evenodd" d="M144.402 1.89402C128.428 2.53338 112.643 3.31953 97.249 4.17899C75.4574 5.39482 53.6744 6.65259 32.0226 8.64403C25.2071 9.27291 18.2859 9.67118 11.513 10.4573C7.26139 10.9499 1.62388 11.652 0.884026 11.7988C0.497052 11.8826 0.328229 12.0085 0.273678 12.0504C-0.109886 12.3439 -0.0398998 12.6268 0.176601 12.8469C0.263542 12.9412 0.48339 13.1719 1.09368 13.2034C41.9083 15.352 83.6435 11.1595 124.508 10.7193C195.373 9.96465 268.387 12.9623 338.69 19.5026C339.303 19.555 339.9 19.2929 339.985 18.9051C340.088 18.5278 339.644 18.1609 339.031 18.1085C268.608 11.5577 195.475 8.54959 124.473 9.31472C86.3898 9.72349 47.5544 13.4025 9.41787 12.1447C10.2941 12.0399 11.1533 11.9351 11.9375 11.8407C18.6831 11.0546 25.5753 10.6669 32.3636 10.038C53.9693 8.04655 75.708 6.7888 97.4706 5.58345C124.474 4.07415 152.653 2.77446 181.053 2.16654C191.214 2.26087 201.34 2.35525 211.466 2.47054C233.371 2.72209 255.38 3.45579 277.234 4.44103C283.815 4.74498 290.395 5.0594 296.975 5.33191C299.157 5.42624 304.783 5.69871 305.567 5.67775C306.539 5.65678 306.726 5.15373 306.743 5.06988C306.794 4.88121 306.76 4.61917 306.283 4.39906C306.232 4.36762 305.925 4.26274 305.243 4.19985C265.506 0.489476 223.075 -0.128822 181.088 0.762087C136.799 0.374279 92.3393 0.206502 48.163 0.0283203C47.5305 0.0283203 47.014 0.342805 47.0089 0.730612C47.0055 1.11842 47.5151 1.43291 48.1476 1.4434C80.1351 1.56917 112.285 1.69487 144.402 1.89402Z" fill="black"/>
</svg>
