<svg width="72" height="72" viewBox="0 0 72 72" fill="none" xmlns="http://www.w3.org/2000/svg">
<rect width="72" height="72" fill="#F2F1FF"/>
<path opacity="0.35" d="M19.1633 27.5378C19.5826 30.66 21.224 37.8357 27.6952 44.3069C34.1663 50.778 41.3401 52.4194 44.4642 52.8387C46.7271 53.3279 49.1806 52.7065 50.9392 50.948C53.6893 48.1979 43.7276 38.2361 40.9774 40.9863L39.2227 42.741L29.261 32.7793L31.0138 31.0246C33.764 28.2744 23.8023 18.3127 21.0521 21.0629C19.2936 22.8214 18.6722 25.275 19.1633 27.5378Z" fill="#4A3AFF"/>
<path d="M21.0581 21.0572L31.0179 31.017C33.7624 28.265 33.7624 23.8111 31.0123 21.061C28.2659 18.3146 23.8101 18.3127 21.0581 21.0572Z" fill="#4A3AFF"/>
<path d="M40.9814 40.9805L50.9413 50.9403C53.6857 48.1902 53.6857 43.7344 50.9356 40.9843C48.1873 38.2379 43.7335 38.236 40.9814 40.9805Z" fill="#4A3AFF"/>
</svg>
